<svg width="280" height="56" viewBox="0 0 280 56" fill="none" xmlns="http://www.w3.org/2000/svg">
<path fill-rule="evenodd" clip-rule="evenodd" d="M160.549 35.7467C157.487 36.1747 156.386 34.5343 156.386 31.2215V2.80005L149.08 3.84367V31.2215C149.08 41.113 155.501 43.0635 163.555 39.9853C162.346 38.7952 161.324 37.3785 160.549 35.7467ZM102.084 26.4501C104.678 26.4501 106.743 25.549 106.743 23.3228C106.743 21.1497 103.619 20.8311 101.925 20.8311C99.596 20.8311 97.1068 22.1035 96.3125 25.2841C97.4783 25.8677 99.9131 26.4501 102.084 26.4501ZM111.285 34.6851L113.913 39.0157C110.512 41.0411 107.009 41.5583 103.778 41.7179C94.8308 41.9823 88.848 37.6351 88.848 28.3056C88.848 19.6118 95.0954 15.2646 101.82 15.1061C107.59 14.9476 113.679 17.6505 113.679 23.4818C113.309 28.9418 108.173 31.0628 102.984 31.1154C100.443 31.1154 97.9548 30.5845 95.8891 29.6307C96.048 34.0311 99.596 36.2574 104.255 36.0983C106.76 36.0531 109.497 35.4741 111.285 34.6851ZM62.8584 30.2671V16.4706L69.7951 15.6358V30.2671C69.7419 33.7132 71.3305 35.5682 73.9249 35.5682C81.761 35.5682 78.0547 20.0352 76.3598 15.6358H83.5079C86.5257 24.5421 88.8028 41.4002 74.6123 41.4002C71.2774 41.4528 67.995 40.2336 66.3527 37.1582C64.8178 40.499 61.7441 41.4002 58.3017 41.4002C51.6845 41.4002 47.445 37.2646 47.6044 30.4794V16.5244L54.9634 15.625V30.2671C54.9108 33.6068 56.3434 35.5682 59.044 35.5682C61.5846 35.5682 62.9115 33.7132 62.8584 30.2671ZM181.597 28.3056C181.597 32.9183 178.579 35.1966 175.455 35.1966C172.331 35.1966 169.261 32.9703 169.261 28.3056C169.261 23.6941 172.331 21.6263 175.455 21.6263C178.526 21.6263 181.597 23.7467 181.597 28.3056ZM161.902 28.3056C161.902 37.2643 168.625 41.7179 175.402 41.7179C182.18 41.7179 188.956 37.2643 188.956 28.3056C188.956 19.3995 182.18 15.1061 175.402 15.1061C168.625 15.1061 161.902 19.3995 161.902 28.3056ZM232.523 20.1697V16.9931L231.249 19.3309H230.661L229.413 16.9931V20.1697H228.415V15.6806H229.625L230.961 18.2427L232.372 15.6806H233.534V20.1697H232.523ZM225.217 20.1697V16.5932H223.831V15.6806H227.64V16.5932H226.254V20.1697H225.217ZM126.062 28.3058C126.062 31.911 127.863 35.5683 131.464 35.5683C135.433 35.5683 137.234 32.4941 137.234 28.3058C137.234 24.3825 135.223 21.7323 131.41 21.7323C128.127 21.7323 126.062 24.2767 126.062 28.3058ZM124.897 19.8768C126.327 16.7488 129.663 15.1061 132.998 15.1061C140.888 15.2646 144.54 21.0434 144.54 28.3058C144.382 35.5156 140.782 41.7184 133.369 41.7184C130.457 41.7184 127.174 40.7108 125.745 38.0074V53.1851L118.861 54.2287V24.1714C118.861 24.0274 118.862 23.886 118.863 23.7474C118.874 21.6231 118.882 20.1663 116.114 20.2636C115.66 18.8686 114.898 17.599 113.854 16.4925C119.801 14.2267 124.897 14.8143 124.897 19.8768ZM211.294 25.8678V16.4706L218.6 15.6358V41.0294C218.6 50.2526 212.618 54.0243 205.575 54.0243C202.081 54.0243 198.375 53.07 194.934 51.2144L195.251 45.6473C197.792 47.0262 201.128 47.9806 204.147 47.9806C208.223 47.9806 211.717 46.4363 211.717 41.0294V37.3178C210.605 40.2873 208.011 41.6651 204.835 41.6651C197.051 41.8236 193.98 36.7348 193.98 28.942V23.2696C193.98 19.7474 191.818 20.1439 190.134 20.6108C189.476 19.332 188.652 18.1962 187.705 17.2035C194.311 14.6145 201.34 13.0937 201.34 21.7854V28.8356C201.34 32.7062 202.611 35.5682 206.264 35.5682C211.294 35.5682 211.294 29.3127 211.294 25.8678Z" fill="white"/>
</svg>
